<svg width="231" height="29" viewBox="0 0 231 29" fill="none" xmlns="http://www.w3.org/2000/svg">
<path d="M25.9999 19.5H23H22L19.5 20L18.5 20.5L17.9999 21L17.5 22L18 23L18.5 24V25L18 26L17.5 26.5L17 27L15.9999 27.5L15 27.5L14 27L13.4999 26.5L12.9999 25V18L13 17L13.5 16L14.5 15L16 14.5H16.5L24.4999 14.5L25.4999 14L25.9166 13.5L25.9999 13V12.5L25.4999 12H23.4999H18.4999H11.4999L10.4999 12.5L9.49994 13L8.99994 14V15V19.5L8.49994 20L6.99994 20.5L5.5 20L4.5 19L3.5 16L2 12L1.5 11L2 10L3 9L4.5 8L8 6.5L8.49994 6L8.99994 5V4L8.49994 3L7.5 2.5H6.5L5.5 3L4 3.5H2.5L1 2.5" stroke="#8F7969" stroke-width="2" stroke-linecap="round" stroke-linejoin="round"/>
<path d="M45.4799 13.212H47.5919V19.218C46.8293 19.8487 45.9419 20.3327 44.9299 20.67C43.9179 21.0073 42.8619 21.176 41.7619 21.176C40.2073 21.176 38.8066 20.8387 37.5599 20.164C36.3133 19.4747 35.3306 18.536 34.6119 17.348C33.9079 16.1453 33.5559 14.796 33.5559 13.3C33.5559 11.804 33.9079 10.4547 34.6119 9.252C35.3306 8.04933 36.3133 7.11067 37.5599 6.436C38.8213 5.76133 40.2366 5.424 41.8059 5.424C43.0379 5.424 44.1526 5.62933 45.1499 6.04C46.1619 6.436 47.0199 7.02267 47.7239 7.8L46.3599 9.164C45.1279 7.976 43.6393 7.382 41.8939 7.382C40.7206 7.382 39.6646 7.63867 38.7259 8.152C37.8019 8.65067 37.0759 9.35467 36.5479 10.264C36.0199 11.1587 35.7559 12.1707 35.7559 13.3C35.7559 14.4147 36.0199 15.4267 36.5479 16.336C37.0759 17.2307 37.8019 17.9347 38.7259 18.448C39.6646 18.9613 40.7133 19.218 41.8719 19.218C43.2506 19.218 44.4533 18.888 45.4799 18.228V13.212ZM53.5201 11.298C53.8867 10.6233 54.4294 10.11 55.1481 9.758C55.8667 9.406 56.7394 9.23 57.7661 9.23V11.276C57.6487 11.2613 57.4874 11.254 57.2821 11.254C56.1381 11.254 55.2361 11.5987 54.5761 12.288C53.9307 12.9627 53.6081 13.9307 53.6081 15.192V21H51.4961V9.34H53.5201V11.298ZM70.7997 15.236C70.7997 15.3973 70.785 15.61 70.7557 15.874H61.2957C61.4277 16.9007 61.875 17.7293 62.6377 18.36C63.415 18.976 64.3757 19.284 65.5197 19.284C66.913 19.284 68.035 18.8147 68.8857 17.876L70.0517 19.24C69.5237 19.856 68.8637 20.3253 68.0717 20.648C67.2944 20.9707 66.4217 21.132 65.4537 21.132C64.2217 21.132 63.129 20.8827 62.1757 20.384C61.2224 19.8707 60.4817 19.1593 59.9537 18.25C59.4404 17.3407 59.1837 16.314 59.1837 15.17C59.1837 14.0407 59.433 13.0213 59.9317 12.112C60.445 11.2027 61.1417 10.4987 62.0217 10C62.9164 9.48667 63.921 9.23 65.0357 9.23C66.1504 9.23 67.1404 9.48667 68.0057 10C68.8857 10.4987 69.5677 11.2027 70.0517 12.112C70.5504 13.0213 70.7997 14.0627 70.7997 15.236ZM65.0357 11.012C64.0237 11.012 63.173 11.32 62.4837 11.936C61.809 12.552 61.413 13.3587 61.2957 14.356H68.7757C68.6584 13.3733 68.255 12.574 67.5657 11.958C66.891 11.3273 66.0477 11.012 65.0357 11.012ZM77.6561 9.23C79.2695 9.23 80.5015 9.626 81.3521 10.418C82.2175 11.21 82.6501 12.3907 82.6501 13.96V21H80.6481V19.46C80.2961 20.0027 79.7901 20.4207 79.1301 20.714C78.4848 20.9927 77.7148 21.132 76.8201 21.132C75.5148 21.132 74.4661 20.8167 73.6741 20.186C72.8968 19.5553 72.5081 18.7267 72.5081 17.7C72.5081 16.6733 72.8821 15.852 73.6301 15.236C74.3781 14.6053 75.5661 14.29 77.1941 14.29H80.5381V13.872C80.5381 12.9627 80.2741 12.266 79.7461 11.782C79.2181 11.298 78.4408 11.056 77.4141 11.056C76.7248 11.056 76.0501 11.1733 75.3901 11.408C74.7301 11.628 74.1728 11.9287 73.7181 12.31L72.8381 10.726C73.4395 10.242 74.1581 9.87533 74.9941 9.626C75.8301 9.362 76.7175 9.23 77.6561 9.23ZM77.1721 19.504C77.9788 19.504 78.6755 19.328 79.2621 18.976C79.8488 18.6093 80.2741 18.096 80.5381 17.436V15.808H77.2821C75.4928 15.808 74.5981 16.4093 74.5981 17.612C74.5981 18.1987 74.8255 18.6607 75.2801 18.998C75.7348 19.3353 76.3655 19.504 77.1721 19.504ZM93.1146 20.318C92.8066 20.582 92.4252 20.7873 91.9706 20.934C91.5159 21.066 91.0466 21.132 90.5626 21.132C89.3892 21.132 88.4799 20.8167 87.8346 20.186C87.1892 19.5553 86.8666 18.6533 86.8666 17.48V11.078H84.8866V9.34H86.8666V6.788H88.9786V9.34H92.3226V11.078H88.9786V17.392C88.9786 18.0227 89.1326 18.5067 89.4406 18.844C89.7632 19.1813 90.2179 19.35 90.8046 19.35C91.4499 19.35 91.9999 19.1667 92.4546 18.8L93.1146 20.318ZM101.884 5.6H108.374C110.002 5.6 111.447 5.92267 112.708 6.568C113.969 7.21333 114.945 8.12267 115.634 9.296C116.338 10.4547 116.69 11.7893 116.69 13.3C116.69 14.8107 116.338 16.1527 115.634 17.326C114.945 18.4847 113.969 19.3867 112.708 20.032C111.447 20.6773 110.002 21 108.374 21H101.884V5.6ZM108.242 19.086C109.489 19.086 110.581 18.844 111.52 18.36C112.473 17.876 113.207 17.2013 113.72 16.336C114.233 15.456 114.49 14.444 114.49 13.3C114.49 12.156 114.233 11.1513 113.72 10.286C113.207 9.406 112.473 8.724 111.52 8.24C110.581 7.756 109.489 7.514 108.242 7.514H104.084V19.086H108.242ZM130.29 15.236C130.29 15.3973 130.275 15.61 130.246 15.874H120.786C120.918 16.9007 121.365 17.7293 122.128 18.36C122.905 18.976 123.866 19.284 125.01 19.284C126.403 19.284 127.525 18.8147 128.376 17.876L129.542 19.24C129.014 19.856 128.354 20.3253 127.562 20.648C126.785 20.9707 125.912 21.132 124.944 21.132C123.712 21.132 122.619 20.8827 121.666 20.384C120.713 19.8707 119.972 19.1593 119.444 18.25C118.931 17.3407 118.674 16.314 118.674 15.17C118.674 14.0407 118.923 13.0213 119.422 12.112C119.935 11.2027 120.632 10.4987 121.512 10C122.407 9.48667 123.411 9.23 124.526 9.23C125.641 9.23 126.631 9.48667 127.496 10C128.376 10.4987 129.058 11.2027 129.542 12.112C130.041 13.0213 130.29 14.0627 130.29 15.236ZM124.526 11.012C123.514 11.012 122.663 11.32 121.974 11.936C121.299 12.552 120.903 13.3587 120.786 14.356H128.266C128.149 13.3733 127.745 12.574 127.056 11.958C126.381 11.3273 125.538 11.012 124.526 11.012ZM136.567 21.132C135.613 21.132 134.697 21.0073 133.817 20.758C132.937 20.494 132.247 20.164 131.749 19.768L132.629 18.096C133.142 18.4627 133.765 18.756 134.499 18.976C135.232 19.196 135.973 19.306 136.721 19.306C138.569 19.306 139.493 18.778 139.493 17.722C139.493 17.37 139.368 17.0913 139.119 16.886C138.869 16.6807 138.554 16.534 138.173 16.446C137.806 16.3433 137.278 16.2333 136.589 16.116C135.65 15.9693 134.88 15.8007 134.279 15.61C133.692 15.4193 133.186 15.0967 132.761 14.642C132.335 14.1873 132.123 13.5493 132.123 12.728C132.123 11.672 132.563 10.8287 133.443 10.198C134.323 9.55267 135.503 9.23 136.985 9.23C137.762 9.23 138.539 9.32533 139.317 9.516C140.094 9.70667 140.732 9.96333 141.231 10.286L140.329 11.958C139.375 11.342 138.253 11.034 136.963 11.034C136.068 11.034 135.386 11.1807 134.917 11.474C134.447 11.7673 134.213 12.156 134.213 12.64C134.213 13.0213 134.345 13.322 134.609 13.542C134.873 13.762 135.195 13.9233 135.577 14.026C135.973 14.1287 136.523 14.246 137.227 14.378C138.165 14.5393 138.921 14.7153 139.493 14.906C140.079 15.082 140.578 15.39 140.989 15.83C141.399 16.27 141.605 16.886 141.605 17.678C141.605 18.734 141.15 19.5773 140.241 20.208C139.346 20.824 138.121 21.132 136.567 21.132ZM150.8 20.318C150.492 20.582 150.111 20.7873 149.656 20.934C149.201 21.066 148.732 21.132 148.248 21.132C147.075 21.132 146.165 20.8167 145.52 20.186C144.875 19.5553 144.552 18.6533 144.552 17.48V11.078H142.572V9.34H144.552V6.788H146.664V9.34H150.008V11.078H146.664V17.392C146.664 18.0227 146.818 18.5067 147.126 18.844C147.449 19.1813 147.903 19.35 148.49 19.35C149.135 19.35 149.685 19.1667 150.14 18.8L150.8 20.318ZM153.354 9.34H155.466V21H153.354V9.34ZM154.41 7.096C153.999 7.096 153.654 6.964 153.376 6.7C153.112 6.436 152.98 6.11333 152.98 5.732C152.98 5.35067 153.112 5.028 153.376 4.764C153.654 4.48533 153.999 4.346 154.41 4.346C154.82 4.346 155.158 4.478 155.422 4.742C155.7 4.99133 155.84 5.30667 155.84 5.688C155.84 6.084 155.7 6.42133 155.422 6.7C155.158 6.964 154.82 7.096 154.41 7.096ZM165.724 9.23C167.205 9.23 168.379 9.66267 169.244 10.528C170.124 11.3787 170.564 12.6327 170.564 14.29V21H168.452V14.532C168.452 13.4027 168.181 12.552 167.638 11.98C167.095 11.408 166.318 11.122 165.306 11.122C164.162 11.122 163.26 11.4593 162.6 12.134C161.94 12.794 161.61 13.7473 161.61 14.994V21H159.498V9.34H161.522V11.1C161.947 10.4987 162.519 10.0367 163.238 9.714C163.971 9.39133 164.8 9.23 165.724 9.23ZM178.719 9.23C180.332 9.23 181.564 9.626 182.415 10.418C183.28 11.21 183.713 12.3907 183.713 13.96V21H181.711V19.46C181.359 20.0027 180.853 20.4207 180.193 20.714C179.547 20.9927 178.777 21.132 177.883 21.132C176.577 21.132 175.529 20.8167 174.737 20.186C173.959 19.5553 173.571 18.7267 173.571 17.7C173.571 16.6733 173.945 15.852 174.693 15.236C175.441 14.6053 176.629 14.29 178.257 14.29H181.601V13.872C181.601 12.9627 181.337 12.266 180.809 11.782C180.281 11.298 179.503 11.056 178.477 11.056C177.787 11.056 177.113 11.1733 176.453 11.408C175.793 11.628 175.235 11.9287 174.781 12.31L173.901 10.726C174.502 10.242 175.221 9.87533 176.057 9.626C176.893 9.362 177.78 9.23 178.719 9.23ZM178.235 19.504C179.041 19.504 179.738 19.328 180.325 18.976C180.911 18.6093 181.337 18.096 181.601 17.436V15.808H178.345C176.555 15.808 175.661 16.4093 175.661 17.612C175.661 18.1987 175.888 18.6607 176.343 18.998C176.797 19.3353 177.428 19.504 178.235 19.504ZM194.177 20.318C193.869 20.582 193.488 20.7873 193.033 20.934C192.578 21.066 192.109 21.132 191.625 21.132C190.452 21.132 189.542 20.8167 188.897 20.186C188.252 19.5553 187.929 18.6533 187.929 17.48V11.078H185.949V9.34H187.929V6.788H190.041V9.34H193.385V11.078H190.041V17.392C190.041 18.0227 190.195 18.5067 190.503 18.844C190.826 19.1813 191.28 19.35 191.867 19.35C192.512 19.35 193.062 19.1667 193.517 18.8L194.177 20.318ZM196.73 9.34H198.842V21H196.73V9.34ZM197.786 7.096C197.376 7.096 197.031 6.964 196.752 6.7C196.488 6.436 196.356 6.11333 196.356 5.732C196.356 5.35067 196.488 5.028 196.752 4.764C197.031 4.48533 197.376 4.346 197.786 4.346C198.197 4.346 198.534 4.478 198.798 4.742C199.077 4.99133 199.216 5.30667 199.216 5.688C199.216 6.084 199.077 6.42133 198.798 6.7C198.534 6.964 198.197 7.096 197.786 7.096ZM207.869 21.132C206.71 21.132 205.669 20.8753 204.745 20.362C203.821 19.8487 203.095 19.1447 202.567 18.25C202.054 17.3407 201.797 16.314 201.797 15.17C201.797 14.026 202.054 13.0067 202.567 12.112C203.095 11.2027 203.821 10.4987 204.745 10C205.669 9.48667 206.71 9.23 207.869 9.23C209.028 9.23 210.062 9.48667 210.971 10C211.895 10.4987 212.614 11.2027 213.127 12.112C213.655 13.0067 213.919 14.026 213.919 15.17C213.919 16.314 213.655 17.3407 213.127 18.25C212.614 19.1447 211.895 19.8487 210.971 20.362C210.062 20.8753 209.028 21.132 207.869 21.132ZM207.869 19.284C208.617 19.284 209.284 19.1153 209.871 18.778C210.472 18.426 210.942 17.942 211.279 17.326C211.616 16.6953 211.785 15.9767 211.785 15.17C211.785 14.3633 211.616 13.652 211.279 13.036C210.942 12.4053 210.472 11.9213 209.871 11.584C209.284 11.2467 208.617 11.078 207.869 11.078C207.121 11.078 206.446 11.2467 205.845 11.584C205.258 11.9213 204.789 12.4053 204.437 13.036C204.1 13.652 203.931 14.3633 203.931 15.17C203.931 15.9767 204.1 16.6953 204.437 17.326C204.789 17.942 205.258 18.426 205.845 18.778C206.446 19.1153 207.121 19.284 207.869 19.284ZM223.066 9.23C224.547 9.23 225.72 9.66267 226.586 10.528C227.466 11.3787 227.906 12.6327 227.906 14.29V21H225.794V14.532C225.794 13.4027 225.522 12.552 224.98 11.98C224.437 11.408 223.66 11.122 222.648 11.122C221.504 11.122 220.602 11.4593 219.942 12.134C219.282 12.794 218.952 13.7473 218.952 14.994V21H216.84V9.34H218.864V11.1C219.289 10.4987 219.861 10.0367 220.58 9.714C221.313 9.39133 222.142 9.23 223.066 9.23Z" fill="#8F7969"/>
</svg>
